<?xml version="1.0" standalone="no"?>
<!DOCTYPE svg PUBLIC "-//W3C//DTD SVG 20010904//EN"
 "http://www.w3.org/TR/2001/REC-SVG-20010904/DTD/svg10.dtd">
<svg version="1.0" xmlns="http://www.w3.org/2000/svg"
 width="512.000000pt" height="512.000000pt" viewBox="0 0 512.000000 512.000000"
 preserveAspectRatio="xMidYMid meet">
<metadata>
Created by potrace 1.11, written by Peter Selinger 2001-2013
</metadata>
<g transform="translate(0.000000,512.000000) scale(0.100000,-0.100000)"
fill="#000000" stroke="none">
<path d="M1235 5100 c-144 -36 -254 -97 -352 -197 -93 -94 -146 -190 -183
-327 -29 -109 -23 -284 14 -391 29 -85 68 -160 113 -217 l28 -34 -1 -730 0
-729 -50 -50 c-29 -29 -65 -81 -85 -120 -32 -66 -34 -75 -34 -175 0 -97 2
-110 32 -172 19 -40 53 -89 83 -119 51 -51 51 -51 45 -103 -12 -106 -36 -234
-61 -326 -61 -221 -28 -377 105 -511 31 -31 76 -66 99 -78 23 -12 42 -25 42
-30 0 -5 -11 -29 -25 -54 -23 -41 -82 -191 -83 -210 0 -4 -6 -33 -13 -65 -7
-32 -13 -135 -13 -239 -1 -162 1 -184 17 -200 17 -17 97 -18 1620 -21 881 -1
1617 0 1634 3 57 10 65 40 59 228 -3 89 -8 180 -11 202 -10 75 -46 189 -85
273 -22 47 -37 88 -34 93 3 5 21 16 40 24 45 19 143 117 176 177 34 62 60 165
57 231 -1 28 -13 95 -26 147 -32 126 -50 214 -58 275 -3 28 -8 68 -11 90 -5
38 -2 44 46 94 29 29 66 82 83 119 30 62 32 75 32 172 0 99 -2 109 -34 174
-19 39 -56 91 -85 121 l-51 52 1 731 c0 718 1 732 20 754 47 54 87 129 121
226 33 96 41 270 18 369 -63 266 -255 466 -519 540 -103 28 -269 24 -396 -11
-94 -26 -226 -112 -307 -200 l-60 -65 -46 53 c-97 112 -251 202 -397 232 -46
9 -225 10 -270 1 -158 -32 -306 -116 -405 -230 l-48 -56 -60 65 c-94 102 -210
173 -342 209 -88 24 -254 27 -340 5z"/>
</g>
</svg>
